<svg xmlns="http://www.w3.org/2000/svg" viewBox="0 0 200 200" width="400" height="400">
  <defs>
    <linearGradient id="bgGrad-jeongyeon-kwon" x1="0%" y1="0%" x2="100%" y2="100%">
      <stop offset="0%" stop-color="#f5f3ff" />
      <stop offset="100%" stop-color="#ffffff" />
    </linearGradient>
    <filter id="shadow-jeongyeon-kwon" x="-10%" y="-10%" width="120%" height="120%">
      <feDropShadow dx="0" dy="4" stdDeviation="6" flood-color="#0f172a" flood-opacity="0.08" />
    </filter>
  </defs>

  <!-- Background Circle with Soft Outline -->
  <circle cx="100" cy="100" r="92" fill="url(#bgGrad-jeongyeon-kwon)" stroke="#7c3aed" stroke-width="3" stroke-dasharray="800" />

  <!-- Outer Hand-drawn Sketch Ring -->
  <circle cx="100" cy="100" r="95" fill="none" stroke="#0f172a" stroke-width="2" stroke-opacity="0.15" stroke-dasharray="6 4" />

  <!-- Character Hair Back -->
  <path d="M 60 130 C 60 70, 140 70, 140 130 C 150 160, 150 190, 145 220 L 55 220 C 50 190, 50 160, 60 130 Z" fill="#1e293b" stroke="#0f172a" stroke-width="4" stroke-linejoin="round" />

  <!-- Character Body / Outfit Lines -->
  <path d="M 40 195 C 40 155, 70 145, 100 145 C 130 145, 160 155, 160 195 Z" fill="#7c3aed" stroke="#0f172a" stroke-width="4" stroke-linejoin="round" filter="url(#shadow-jeongyeon-kwon)" />
  <path d="M 85 145 L 100 170 L 115 145" fill="none" stroke="#ffffff" stroke-width="3" stroke-linecap="round" stroke-linejoin="round" />

  <!-- Neck -->
  <rect x="88" y="125" width="24" height="22" rx="4" fill="#fed7aa" stroke="#0f172a" stroke-width="3" />

  <!-- Face Base (Hand Drawn Line) -->
  <ellipse cx="100" cy="105" rx="34" ry="38" fill="#ffedd5" stroke="#0f172a" stroke-width="4" />

  <!-- Eyes & Glasses / Expressions -->
  <circle cx="86" cy="102" r="4" fill="#0f172a" />
  <circle cx="114" cy="102" r="4" fill="#0f172a" />
  <circle cx="87" cy="100" r="1.5" fill="#ffffff" />
  <circle cx="115" cy="100" r="1.5" fill="#ffffff" />

  <!-- Cheeks -->
  <circle cx="78" cy="110" r="5" fill="#f43f5e" opacity="0.3" />
  <circle cx="122" cy="110" r="5" fill="#f43f5e" opacity="0.3" />

  <!-- Smile -->
  <path d="M 92 118 Q 100 126 108 118" fill="none" stroke="#0f172a" stroke-width="3.5" stroke-linecap="round" />

  <!-- Hair Front Fringe -->
  <path d="M 68 95 C 75 75, 100 80, 105 92 C 115 78, 130 82, 132 95 C 120 85, 80 85, 68 95 Z" fill="#1e293b" stroke="#0f172a" stroke-width="3" />

  <!-- Name Badge Accent -->
  <g transform="translate(100, 172)">
    <rect x="-36" y="-10" width="72" height="20" rx="10" fill="#0f172a" />
    <text x="0" y="4" text-anchor="middle" fill="#ffffff" font-family="system-ui, -apple-system, sans-serif" font-weight="700" font-size="11" letter-spacing="1">정연</text>
  </g>
</svg>