<svg width="160" height="22" viewBox="0 0 160 22" fill="none" xmlns="http://www.w3.org/2000/svg">
<g clip-path="url(#clip0_4775_61738)">
<path d="M44.3633 16.1564C42.8383 16.1564 41.598 15.8349 40.6376 15.1895C39.6772 14.544 39.0898 13.6365 38.873 12.4668L41.356 12.1008C41.5098 12.724 41.8678 13.2136 42.4299 13.5722C42.9895 13.9308 43.6878 14.1113 44.5247 14.1113C45.2834 14.1113 45.8758 13.9629 46.3069 13.6662C46.7354 13.3694 46.9497 12.9638 46.9497 12.4445C46.9497 12.1404 46.8741 11.8955 46.7228 11.7051C46.5716 11.5172 46.2565 11.3367 45.7775 11.166C45.2986 10.9954 44.5675 10.7852 43.5844 10.533C42.508 10.2659 41.656 9.97904 41.0258 9.6724C40.3956 9.36576 39.9469 9.00471 39.6797 8.59421C39.4125 8.1837 39.2789 7.68417 39.2789 7.10057C39.2789 6.37353 39.4806 5.74046 39.8814 5.20137C40.2822 4.6598 40.8493 4.24187 41.5804 3.94512C42.3114 3.64837 43.1685 3.5 44.1516 3.5C45.1347 3.5 45.9666 3.64343 46.7152 3.93276C47.4664 4.22209 48.074 4.63012 48.5378 5.15933C49.0016 5.68853 49.2814 6.30923 49.3722 7.02143L46.8892 7.45419C46.8035 6.87553 46.5211 6.42051 46.0422 6.08667C45.5632 5.75283 44.9406 5.5723 44.1743 5.54263C43.4382 5.51295 42.8433 5.62918 42.387 5.89378C41.9308 6.15591 41.7014 6.51696 41.7014 6.97692C41.7014 7.24399 41.7896 7.46903 41.9635 7.6545C42.1375 7.83997 42.4753 8.01802 42.9794 8.18865C43.4811 8.35928 44.2247 8.56206 45.2078 8.79946C46.259 9.05911 47.0959 9.34597 47.7135 9.66003C48.3336 9.97409 48.7747 10.35 49.0419 10.7827C49.3091 11.2155 49.4427 11.7398 49.4427 12.3555C49.4427 13.54 48.9915 14.4699 48.0916 15.145C47.1917 15.8201 45.9464 16.1564 44.3608 16.1564H44.3633Z" fill="#3F3F3F"></path>
<path d="M54.9683 5.70054V11C54.9683 11.4822 54.9734 11.9001 54.986 12.2562C54.9986 12.6123 55.0767 12.9116 55.2229 13.1564C55.5028 13.6163 55.9439 13.876 56.5514 13.9403C57.1589 14.0021 57.8723 13.9774 58.6941 13.8661V15.8345C57.9051 15.9805 57.1312 16.0447 56.3724 16.0225C55.6137 16.0002 54.9381 15.8593 54.3407 15.5996C53.7458 15.34 53.2971 14.9344 52.9946 14.378C52.7248 13.8809 52.5786 13.3765 52.561 12.8621C52.5408 12.3477 52.5307 11.7641 52.5307 11.1113V5.70054H50.1284V3.83349H52.5307V0.5H54.9683V3.83349H58.6941V5.70054H54.9683Z" fill="#3F3F3F"></path>
<path d="M65.7017 16.1663C64.4489 16.1663 63.3624 15.8967 62.4398 15.3552C61.5197 14.8136 60.8088 14.0692 60.3097 13.1172C59.8106 12.1651 59.561 11.0671 59.561 9.82325C59.561 8.57937 59.8156 7.46903 60.3274 6.51696C60.8391 5.56488 61.5525 4.82548 62.4751 4.29381C63.3977 3.76213 64.4716 3.5 65.7017 3.5C66.9318 3.5 68.041 3.76955 68.9636 4.31112C69.8862 4.85268 70.5971 5.59703 71.0987 6.54416C71.6029 7.49129 71.8524 8.58431 71.8524 9.82077C71.8524 11.0572 71.5978 12.175 71.0937 13.1271C70.587 14.0791 69.8736 14.8235 68.9535 15.3601C68.0334 15.8967 66.9495 16.1663 65.7042 16.1663H65.7017ZM65.7017 13.9777C66.9016 13.9777 67.7965 13.5895 68.3889 12.8155C68.9812 12.0415 69.2762 11.0424 69.2762 9.82077C69.2762 8.59915 68.9762 7.56795 68.3763 6.81618C67.7763 6.06441 66.884 5.68853 65.7017 5.68853C64.89 5.68853 64.2195 5.86411 63.6951 6.21526C63.1683 6.56642 62.7776 7.05358 62.523 7.67181C62.2684 8.29004 62.1398 9.00718 62.1398 9.82077C62.1398 11.0795 62.4423 12.0884 63.0448 12.8427C63.6472 13.5969 64.5346 13.9753 65.7017 13.9753V13.9777Z" fill="#3F3F3F"></path>
<path d="M80.6832 3.83379V6.01243C80.2749 5.90857 79.8186 5.87889 79.3195 5.92341C78.8204 5.96792 78.3641 6.11877 77.9456 6.37842C77.5499 6.62324 77.2398 6.91999 77.0104 7.26867C76.7835 7.61488 76.6197 8.00313 76.5189 8.42847C76.418 8.85381 76.3676 9.30388 76.3676 9.77868V15.8349H73.9199V3.83379H76.0777V5.75772C76.166 5.60193 76.2668 5.45108 76.3777 5.30765C76.6273 4.9837 76.9121 4.7191 77.2373 4.51137C77.5549 4.28881 77.9078 4.11818 78.2985 3.99453C78.6893 3.87336 79.0901 3.79917 79.501 3.77197C79.9093 3.74724 80.3051 3.76702 80.6832 3.83379Z" fill="#3F3F3F"></path>
<path d="M93.4132 10.4885C93.5064 9.0517 93.33 7.81277 92.8863 6.76672C92.4402 5.72315 91.7696 4.91698 90.8722 4.35068C89.9748 3.78439 88.8883 3.5 87.6128 3.5C86.3373 3.5 85.3189 3.7646 84.3963 4.28886C83.4762 4.81559 82.7603 5.55994 82.2435 6.5219C81.7293 7.48634 81.4722 8.62388 81.4722 9.93453C81.4722 11.171 81.7343 12.2591 82.2561 13.1938C82.7779 14.1311 83.509 14.8606 84.4492 15.3848C85.3895 15.9066 86.481 16.1663 87.7288 16.1663C88.9766 16.1663 90.0454 15.872 91.0361 15.2834C92.0242 14.6949 92.7653 13.864 93.2518 12.7907L90.8722 12.0662C90.5622 12.6819 90.1311 13.1543 89.579 13.4832C89.0245 13.8145 88.3691 13.9777 87.6128 13.9777C86.4583 13.9777 85.576 13.6167 84.966 12.8946C84.4618 12.2962 84.1644 11.4949 84.0761 10.4885H93.4132ZM84.1291 8.67829C84.2602 7.84491 84.5375 7.16981 84.966 6.65544C85.576 5.92346 86.4911 5.55747 87.7036 5.55747C88.8026 5.55747 89.6219 5.88884 90.1588 6.55652C90.5622 7.05853 90.8193 7.76578 90.9277 8.67829H84.1291Z" fill="#3F3F3F"></path>
<path d="M109.811 7.0338C109.765 6.59609 109.642 6.18311 109.44 5.78992C109.052 4.99611 108.444 4.41745 107.613 4.05146C106.781 3.683 105.803 3.5 104.681 3.5C103.234 3.5 102.077 3.80417 101.207 4.41251C100.335 5.01837 99.7452 5.83691 99.4376 6.86811L101.699 7.53333C101.916 6.86069 102.299 6.376 102.848 6.0842C103.398 5.79239 104 5.64649 104.658 5.64649C105.702 5.64649 106.44 5.874 106.869 6.32902C107.242 6.72715 107.449 7.30829 107.484 8.07737C107.01 8.13919 106.534 8.20349 106.057 8.26778C105.278 8.37164 104.537 8.48292 103.834 8.60162C103.131 8.72032 102.5 8.85633 101.943 9.01213C101.3 9.21243 100.759 9.47209 100.317 9.79604C99.8762 10.1175 99.546 10.5082 99.3191 10.9682C99.0948 11.4257 98.9839 11.9598 98.9839 12.5682C98.9839 13.2186 99.1452 13.817 99.4654 14.361C99.7855 14.9051 100.259 15.3428 100.887 15.6717C101.515 16.0031 102.291 16.1663 103.219 16.1663C104.388 16.1663 105.372 15.9437 106.173 15.4961C106.771 15.1598 107.292 14.6924 107.734 14.0915V15.8349H109.881V8.44583C109.881 7.94136 109.859 7.4715 109.811 7.0338ZM107.439 10.6888C107.418 11.1339 107.343 11.5345 107.212 11.8906C107.118 12.2813 106.922 12.6597 106.619 13.0232C106.317 13.3867 105.919 13.6835 105.425 13.9184C104.928 14.1508 104.338 14.2671 103.65 14.2671C103.131 14.2671 102.705 14.1904 102.372 14.0346C102.039 13.8788 101.792 13.6686 101.631 13.4065C101.467 13.1444 101.386 12.855 101.386 12.5459C101.386 12.2368 101.462 11.9574 101.613 11.7348C101.764 11.5122 101.969 11.3218 102.228 11.1685C102.488 11.0127 102.783 10.8792 103.115 10.7679C103.509 10.6492 103.96 10.5478 104.467 10.4613C104.973 10.3772 105.54 10.2906 106.168 10.2016C106.569 10.1447 107 10.0829 107.461 10.0161C107.456 10.2115 107.449 10.4365 107.439 10.6888Z" fill="#3F3F3F"></path>
<path d="M121.124 3.83384V4.90956C120.91 4.69195 120.675 4.50153 120.423 4.32843C119.614 3.77697 118.618 3.5 117.434 3.5C116.249 3.5 115.243 3.77697 114.388 4.32843C113.534 4.87989 112.873 5.63165 112.41 6.58373C111.946 7.5358 111.714 8.61646 111.714 9.82325C111.714 11.03 111.943 12.1033 112.405 13.0628C112.863 14.0223 113.519 14.779 114.366 15.3329C115.213 15.8893 116.221 16.1663 117.388 16.1663C118.555 16.1663 119.594 15.8868 120.406 15.328C120.554 15.2241 120.698 15.1153 120.834 14.9941V16.1341C120.842 16.8216 120.721 17.4003 120.469 17.8676C120.217 18.335 119.848 18.6837 119.362 18.9162C118.873 19.1511 118.286 19.2673 117.597 19.2673C117.04 19.2673 116.511 19.1486 116.007 18.9112C115.505 18.6738 115.117 18.3004 114.847 17.7885L112.606 18.8791C112.947 19.4478 113.378 19.9276 113.894 20.3158C114.414 20.7065 114.988 21.0008 115.619 21.2011C116.249 21.4014 116.902 21.5004 117.575 21.5004C118.548 21.5004 119.42 21.3718 120.191 21.1121C120.96 20.8525 121.595 20.4593 122.095 19.9325C122.594 19.4083 122.931 18.7406 123.11 17.9344C123.171 17.6451 123.214 17.3557 123.236 17.0664C123.259 16.7796 123.272 16.4754 123.272 16.1564V3.83384H121.124ZM120.776 12.0217C120.544 12.6597 120.176 13.1592 119.675 13.5227C119.17 13.8862 118.523 14.0668 117.726 14.0668C116.929 14.0668 116.312 13.8788 115.805 13.5005C115.298 13.1221 114.918 12.6127 114.668 11.9722C114.416 11.3317 114.29 10.6146 114.29 9.82325C114.29 9.03191 114.416 8.32713 114.668 7.68912C114.918 7.05358 115.303 6.54416 115.823 6.16828C116.34 5.78992 117.002 5.60198 117.807 5.60198C118.565 5.60198 119.188 5.77756 119.68 6.13366C120.171 6.48976 120.534 6.98681 120.771 7.62235C121.008 8.26036 121.124 8.99235 121.124 9.82325C121.124 10.6541 121.008 11.3861 120.776 12.0217Z" fill="#3F3F3F"></path>
<path d="M137.277 10.4885C137.371 9.0517 137.194 7.81277 136.751 6.76672C136.304 5.72315 135.634 4.91698 134.736 4.35068C133.839 3.78439 132.753 3.5 131.477 3.5C130.202 3.5 129.183 3.7646 128.261 4.28886C127.34 4.81559 126.625 5.55994 126.11 6.5219C125.594 7.48634 125.336 8.62388 125.336 9.93453C125.336 11.171 125.599 12.2591 126.12 13.1938C126.642 14.1311 127.373 14.8606 128.313 15.3848C129.254 15.9066 130.345 16.1663 131.593 16.1663C132.841 16.1663 133.91 15.872 134.9 15.2834C135.888 14.6949 136.63 13.864 137.116 12.7907L134.736 12.0662C134.426 12.6819 133.995 13.1543 133.443 13.4832C132.889 13.8145 132.233 13.9777 131.477 13.9777C130.323 13.9777 129.44 13.6167 128.83 12.8946C128.326 12.2962 128.029 11.4949 127.94 10.4885H137.277ZM127.996 8.67829C128.124 7.84491 128.402 7.16981 128.83 6.65544C129.44 5.92346 130.355 5.55747 131.568 5.55747C132.667 5.55747 133.486 5.88884 134.023 6.55652C134.426 7.05853 134.684 7.76578 134.792 8.67829H127.996Z" fill="#3F3F3F"></path>
<path d="M150.3 9.16728V15.8343H147.839V9.93388C147.839 9.4665 147.797 8.98675 147.716 8.49464C147.635 8.00253 147.482 7.54504 147.252 7.12218C147.023 6.69931 146.703 6.36052 146.289 6.10086C145.876 5.84121 145.336 5.71261 144.671 5.71261C144.237 5.71261 143.826 5.77938 143.441 5.91787C143.052 6.05388 142.715 6.27397 142.425 6.57813C142.135 6.8823 141.906 7.28292 141.739 7.7775C141.573 8.27455 141.49 8.87795 141.49 9.59015V15.8343H139.029V3.8332H141.2V5.27491C141.548 4.85204 141.966 4.49841 142.453 4.21155C143.252 3.74417 144.215 3.51172 145.344 3.51172C146.209 3.51172 146.937 3.64526 147.524 3.91233C148.114 4.17693 148.591 4.52809 148.959 4.96085C149.327 5.39361 149.607 5.86593 149.801 6.37783C149.992 6.88972 150.123 7.38925 150.194 7.87889C150.264 8.36605 150.3 8.79634 150.3 9.16728Z" fill="#3F3F3F"></path>
<path d="M156.274 5.70054V11C156.274 11.4822 156.281 11.9001 156.292 12.2562C156.304 12.6123 156.382 12.9116 156.529 13.1564C156.808 13.6163 157.252 13.876 157.86 13.9403C158.467 14.0021 159.18 13.9774 160 13.8661V15.8345C159.211 15.9805 158.437 16.0447 157.678 16.0225C156.919 16.0002 156.244 15.8593 155.649 15.5996C155.051 15.34 154.603 14.9344 154.303 14.378C154.03 13.8809 153.887 13.3765 153.867 12.8621C153.846 12.3477 153.839 11.7641 153.839 11.1113V5.70054H151.437V3.83349H153.839V0.5H156.274V3.83349H160V5.70054H156.274Z" fill="#3F3F3F"></path>
<path d="M29.7807 13.2188C29.7807 12.2074 29.3622 11.2924 28.6867 10.6297C28.0993 10.0535 27.3179 9.66771 26.4457 9.57869H25.6466C25.6844 9.57374 25.7222 9.57127 25.7575 9.56879C25.7197 9.56632 25.6819 9.56138 25.6466 9.5589C24.7744 9.4674 23.9929 9.0841 23.4056 8.50791C22.8183 7.93172 22.425 7.16512 22.3343 6.30949C22.3292 6.2724 22.3267 6.2353 22.3242 6.19821C22.3217 6.2353 22.3166 6.2724 22.3141 6.30949V5.52558C22.2208 4.66995 21.8301 3.90334 21.2428 3.32715C20.5672 2.66441 19.6345 2.25391 18.6035 2.25391C16.6776 2.25391 15.0895 3.68573 14.8903 5.52558V6.30949C14.8853 6.2724 14.8828 6.2353 14.8803 6.19821C14.8777 6.2353 14.8727 6.2724 14.8702 6.30949C14.7769 7.16512 14.3862 7.93172 13.7988 8.50791C13.2115 9.0841 12.43 9.46988 11.5579 9.5589C11.52 9.56385 11.4822 9.56632 11.4469 9.56879C11.4847 9.57127 11.5226 9.57621 11.5579 9.57869H10.7588C10.7966 9.57374 10.8344 9.57127 10.8697 9.56879C10.8319 9.56632 10.7941 9.56138 10.7588 9.5589C9.88656 9.4674 9.10512 9.0841 8.51777 8.50791C7.93043 7.93172 7.53718 7.16512 7.44643 6.30949C7.44139 6.2724 7.43887 6.2353 7.43635 6.19821C7.43383 6.2353 7.42879 6.2724 7.42627 6.30949V5.52558C7.333 4.66995 6.94227 3.90334 6.35493 3.32715C5.67935 2.66441 4.74666 2.25391 3.71565 2.25391C1.78472 2.25144 0.199143 3.68573 0 5.5231V6.30702C0.0932695 7.16265 0.483993 7.92925 1.07134 8.50544C1.65868 9.08163 2.44013 9.4674 3.31233 9.55643H4.11142C4.07361 9.56138 4.0358 9.56385 4.0005 9.56632C4.03832 9.56879 4.07613 9.57374 4.11142 9.57621C4.98361 9.66771 5.76506 10.051 6.35241 10.6272C6.93975 11.2034 7.333 11.97 7.42375 12.8256C7.42879 12.8627 7.43131 12.8998 7.43383 12.9369C7.43635 12.8998 7.44139 12.8627 7.44391 12.8256V13.6095C7.53718 14.4652 7.92791 15.2318 8.51525 15.808C9.1026 16.3841 9.88404 16.7699 10.7562 16.8589H11.5553C12.4275 16.7675 13.209 16.3841 13.7963 15.808C14.3837 15.2318 14.7769 14.4652 14.8677 13.6095V12.8256C14.8727 12.8627 14.8752 12.8998 14.8777 12.9369C14.8803 12.8998 14.8853 12.8627 14.8878 12.8256C15.0718 11.1168 16.4583 9.75674 18.2002 9.57621C18.238 9.57127 18.2758 9.56879 18.3111 9.56632C18.2733 9.56385 18.2354 9.5589 18.2002 9.55643H18.9992C18.9614 9.56138 18.9236 9.56385 18.8883 9.56632C18.9261 9.56879 18.964 9.57374 18.9992 9.57621C19.8714 9.66771 20.6529 10.051 21.2402 10.6272C21.8276 11.2034 22.2208 11.97 22.3116 12.8256C22.3166 12.8627 22.3191 12.8998 22.3217 12.9369C22.3242 12.8998 22.3292 12.8627 22.3317 12.8256V13.6095C22.425 14.4652 22.8157 15.2318 23.4031 15.808C23.9904 16.3841 24.7719 16.7699 25.6441 16.8589H26.4432C27.3154 16.7675 28.0968 16.3841 28.6841 15.808C29.3597 15.1452 29.7782 14.2302 29.7782 13.2188H29.7807Z" fill="#3878E0"></path>
</g>
<defs>
<clipPath id="clip0_4775_61738">
<rect width="160" height="21" fill="white" transform="translate(0 0.5)"></rect>
</clipPath>
</defs>
</svg>