<?xml version="1.0" encoding="UTF-8"?>
<svg id="Layer_2" data-name="Layer 2" xmlns="http://www.w3.org/2000/svg" viewBox="0 0 1267.11 301.68">
  <defs>
    
  </defs>
  <g id="Layer_1-2" data-name="Layer 1">
    <g>
      <path class="cls-2" d="M534.51,206.33c-.03-18.49-7.55-35.22-19.69-47.33-10.55-10.53-24.57-17.54-40.22-19.18l-14.33.02c.68-.07,1.34-.14,2.01-.19-.68-.05-1.34-.12-2.01-.19-15.63-1.64-29.66-8.65-40.22-19.18-10.56-10.51-17.61-24.52-19.3-40.17-.07-.66-.14-1.34-.19-2.01-.05.68-.12,1.35-.19,2.01l-.02-14.33c-1.69-15.63-8.74-29.63-19.3-40.17-12.13-12.11-28.88-19.58-47.39-19.55-34.57.05-62.98,26.29-66.51,59.91l.02,14.33c-.07-.66-.14-1.34-.19-2.01-.05.68-.12,1.35-.19,2.01-1.64,15.65-8.65,29.68-19.18,40.22-10.51,10.56-24.52,17.61-40.17,19.3-.66.07-1.34.14-2.01.19.68.05,1.35.12,2.01.19l-14.33.02c.68-.07,1.34-.14,2.01-.19-.68-.05-1.34-.12-2.01-.19-15.63-1.64-29.66-8.65-40.22-19.18-10.56-10.51-17.61-24.52-19.3-40.17-.07-.66-.14-1.34-.19-2.01-.05.68-.12,1.35-.19,2.01l-.02-14.33c-1.69-15.63-8.74-29.63-19.3-40.17-12.13-12.11-28.88-19.58-47.39-19.55C31.93,6.53,3.52,32.76,0,66.39l.02,14.33c1.69,15.64,8.74,29.65,19.3,40.17,10.56,10.53,24.59,17.54,40.22,19.18l14.33-.02c-.66.07-1.34.14-2.01.19.68.05,1.35.12,2.01.19,15.65,1.64,29.68,8.65,40.22,19.18,10.56,10.53,17.61,24.54,19.3,40.17.07.68.14,1.34.19,2.01.05-.68.12-1.34.19-2.01l.02,14.33c1.69,15.64,8.74,29.65,19.3,40.17,10.56,10.53,24.59,17.54,40.22,19.18l14.33-.02c15.64-1.69,29.65-8.74,40.17-19.3,10.53-10.55,17.54-24.57,19.18-40.22l-.02-14.33c.07.68.14,1.34.19,2.01.05-.68.12-1.34.19-2.01,3.27-31.26,28.09-56.16,59.34-59.52.68-.07,1.34-.14,2.01-.19-.68-.05-1.34-.12-2.01-.19l14.33-.02c-.66.07-1.34.14-2.01.19.68.05,1.35.12,2.01.19,15.65,1.64,29.68,8.65,40.22,19.18,10.56,10.53,17.61,24.54,19.3,40.17.07.68.14,1.34.19,2.01.05-.68.12-1.34.19-2.01l.02,14.33c1.69,15.64,8.74,29.65,19.3,40.17,10.56,10.53,24.59,17.54,40.22,19.18l14.33-.02c15.64-1.69,29.65-8.74,40.17-19.3,12.11-12.13,19.58-28.88,19.55-47.39Z"></path>
      <g>
        <g>
          <path class="cls-1" d="M734.85,50.88c-.82-7.52-4.2-13.38-10.15-17.56-5.95-4.18-13.67-6.27-23.15-6.26-6.67,0-12.38,1.02-17.14,3.04-4.77,2.02-8.41,4.75-10.93,8.2-2.52,3.45-3.81,7.39-3.86,11.81,0,3.68.86,6.86,2.56,9.56,1.7,2.7,4.02,4.98,6.95,6.84,2.93,1.86,6.18,3.42,9.74,4.68,3.56,1.26,7.16,2.32,10.78,3.17l16.55,4.11c6.67,1.54,13.09,3.63,19.27,6.26,6.18,2.63,11.73,5.96,16.65,9.97,4.92,4.01,8.82,8.86,11.7,14.55,2.88,5.68,4.33,12.35,4.34,19.99.02,10.34-2.61,19.44-7.89,27.29-5.27,7.85-12.89,13.98-22.85,18.39-9.96,4.41-22.01,6.63-36.14,6.65-13.73.02-25.64-2.09-35.73-6.32-10.09-4.24-17.97-10.43-23.64-18.58-5.67-8.15-8.75-18.08-9.22-29.8l31.45-.05c.47,6.15,2.37,11.26,5.71,15.33,3.34,4.08,7.69,7.11,13.07,9.12,5.37,2,11.39,3,18.06,2.99,6.95,0,13.05-1.07,18.31-3.17,5.25-2.1,9.37-5.04,12.35-8.81,2.98-3.77,4.5-8.18,4.55-13.24-.06-4.6-1.42-8.4-4.07-11.41-2.65-3.01-6.34-5.54-11.08-7.57-4.74-2.03-10.28-3.85-16.6-5.45l-20.09-5.14c-14.54-3.71-26.02-9.37-34.45-16.97-8.43-7.6-12.65-17.72-12.67-30.36-.01-10.4,2.8-19.51,8.45-27.33,5.65-7.82,13.35-13.91,23.11-18.26C678.53,2.2,689.59.02,701.94,0c12.52-.02,23.51,2.13,32.97,6.46,9.46,4.32,16.89,10.32,22.3,17.98,5.41,7.66,8.21,16.46,8.4,26.4l-30.76.05Z"></path>
          <path class="cls-1" d="M912.9,2.09l-39.47.06-61.87,176.58,34.13-.05,14.53-43.54,66.35-.1,14.69,43.5,34.12-.05L912.9,2.09ZM868.79,109.45l23.74-71.13h1.38s24,71.05,24,71.05l-49.12.08Z"></path>
          <path class="cls-1" d="M1117.64,1.8l-39.47.05-61.87,176.58,34.13-.05,14.53-43.54,66.35-.1,14.69,43.5,34.12-.05L1117.64,1.8ZM1073.53,109.15l23.74-71.13h1.38l23.99,71.05-49.11.08Z"></path>
          <path class="cls-1" d="M1264.21,1.57l.26,176.49-31.97.05-.26-176.49,31.97-.05Z"></path>
        </g>
        <g>
          <path class="cls-1" d="M674.72,237.52c-.37-3.06-1.84-5.43-4.41-7.11-2.58-1.68-5.73-2.53-9.47-2.52-2.74,0-5.12.45-7.16,1.34s-3.63,2.11-4.76,3.66c-1.13,1.55-1.7,3.31-1.7,5.28,0,1.65.4,3.06,1.2,4.24.8,1.18,1.82,2.15,3.07,2.92,1.25.77,2.55,1.4,3.92,1.89,1.37.49,2.62.89,3.77,1.19l6.28,1.68c1.61.42,3.41,1,5.39,1.74s3.88,1.75,5.71,3.02c1.82,1.27,3.33,2.91,4.52,4.89,1.19,1.99,1.79,4.43,1.79,7.33,0,3.34-.86,6.36-2.59,9.05-1.74,2.7-4.27,4.84-7.59,6.44s-7.36,2.39-12.11,2.4c-4.42,0-8.25-.7-11.48-2.12s-5.77-3.41-7.61-5.96-2.89-5.52-3.13-8.89h7.72c.2,2.32,1,4.24,2.38,5.76,1.38,1.52,3.13,2.64,5.25,3.37,2.12.73,4.41,1.09,6.86,1.09,2.86,0,5.42-.48,7.69-1.42,2.27-.94,4.07-2.25,5.39-3.93,1.33-1.68,1.99-3.65,1.98-5.9,0-2.05-.58-3.72-1.73-5-1.15-1.28-2.66-2.33-4.53-3.13-1.87-.8-3.89-1.5-6.07-2.1l-7.6-2.16c-4.83-1.38-8.65-3.35-11.47-5.92s-4.23-5.94-4.24-10.1c0-3.46.93-6.48,2.81-9.07,1.88-2.59,4.41-4.6,7.59-6.04,3.18-1.44,6.75-2.17,10.69-2.17,3.98,0,7.52.7,10.62,2.11,3.1,1.41,5.56,3.35,7.38,5.8,1.82,2.45,2.79,5.23,2.89,8.35h-7.24Z"></path>
          <path class="cls-1" d="M694.33,301.19l-.1-63.7h6.88s.01,7.35.01,7.35h.84c.52-.81,1.25-1.84,2.18-3.1s2.28-2.39,4.04-3.38c1.76-1,4.14-1.5,7.16-1.5,3.9,0,7.34.96,10.32,2.91,2.98,1.95,5.3,4.71,6.98,8.28,1.67,3.58,2.52,7.8,2.52,12.66,0,4.91-.82,9.15-2.49,12.75-1.66,3.59-3.97,6.37-6.92,8.33-2.95,1.96-6.36,2.95-10.22,2.96-2.98,0-5.36-.49-7.15-1.48s-3.17-2.13-4.14-3.4c-.97-1.28-1.71-2.33-2.24-3.18h-.6s.04,24.49.04,24.49h-7.12ZM701.26,260.65c0,3.5.52,6.58,1.55,9.24s2.53,4.74,4.5,6.24,4.39,2.24,7.24,2.24c2.98,0,5.46-.8,7.46-2.38,2-1.58,3.5-3.71,4.51-6.4,1.01-2.68,1.52-5.68,1.51-8.97,0-3.26-.51-6.2-1.51-8.82-1-2.62-2.5-4.7-4.5-6.24-2-1.54-4.51-2.3-7.53-2.3-2.9,0-5.33.74-7.3,2.2-1.97,1.46-3.45,3.49-4.45,6.1-1,2.61-1.5,5.64-1.49,9.1Z"></path>
          <path class="cls-1" d="M759.78,284.81c-2.94,0-5.6-.55-8-1.66-2.39-1.11-4.3-2.73-5.71-4.85-1.41-2.12-2.12-4.69-2.12-7.7,0-2.65.52-4.81,1.56-6.47,1.04-1.66,2.44-2.96,4.19-3.91,1.75-.95,3.68-1.66,5.8-2.13,2.12-.48,4.26-.86,6.41-1.14,2.81-.37,5.1-.65,6.86-.84,1.76-.19,3.04-.52,3.86-.99.81-.46,1.22-1.27,1.22-2.42v-.24c0-2.98-.82-5.29-2.44-6.93-1.62-1.65-4.07-2.47-7.35-2.46-3.4,0-6.06.75-7.99,2.24-1.93,1.49-3.28,3.08-4.06,4.77l-6.76-2.4c1.2-2.82,2.81-5.02,4.83-6.6,2.02-1.58,4.23-2.69,6.63-3.33,2.4-.64,4.77-.96,7.1-.96,1.49,0,3.2.17,5.14.52,1.94.35,3.82,1.06,5.64,2.15,1.82,1.08,3.34,2.72,4.55,4.91,1.21,2.19,1.82,5.12,1.82,8.8l.05,30.52h-7.12s0-6.26,0-6.26h-.36c-.48,1.01-1.28,2.08-2.41,3.23-1.12,1.15-2.62,2.12-4.49,2.93-1.87.81-4.15,1.21-6.84,1.22ZM760.85,278.41c2.82,0,5.19-.56,7.13-1.67,1.94-1.11,3.41-2.54,4.4-4.29s1.49-3.59,1.48-5.52v-6.51c-.31.36-.97.69-1.98.98-1.02.29-2.18.55-3.5.76-1.32.21-2.59.4-3.83.55-1.24.15-2.24.28-3,.38-1.85.24-3.57.63-5.17,1.17-1.6.53-2.88,1.33-3.86,2.39-.97,1.06-1.46,2.49-1.46,4.3,0,2.47.93,4.34,2.77,5.59,1.84,1.25,4.18,1.88,7.02,1.87Z"></path>
          <path class="cls-1" d="M815.12,283.4c-.48.19-1.16.37-2.02.57-.87.19-1.96.29-3.29.29-2.01,0-3.98-.43-5.9-1.29-1.92-.86-3.51-2.18-4.77-3.95-1.26-1.76-1.89-3.99-1.89-6.69l-.04-28.95h-7s-.01-6.03-.01-6.03h7s-.02-11.11-.02-11.11h7.11s.02,11.09.02,11.09h9.9s0,6.02,0,6.02l-9.89.02.04,27.02c0,2.01.3,3.51.9,4.51.59.99,1.36,1.66,2.29,1.98.94.34,1.93.5,2.98.5.78,0,1.42-.05,1.93-.14.5-.09.9-.17,1.2-.23l1.46,6.39Z"></path>
          <path class="cls-1" d="M828.63,229.57c-1.39,0-2.58-.47-3.58-1.41-1-.94-1.5-2.08-1.5-3.41s.49-2.46,1.49-3.41c.99-.95,2.18-1.42,3.57-1.42,1.39,0,2.58.47,3.58,1.41,1,.94,1.5,2.08,1.5,3.41s-.49,2.46-1.49,3.41c-.99.95-2.18,1.42-3.57,1.42ZM825.09,283.63l-.07-46.33h7.12s.07,46.32.07,46.32h-7.12Z"></path>
          <path class="cls-1" d="M858.96,284.66c-2.94,0-5.6-.55-8-1.66s-4.3-2.73-5.71-4.85c-1.41-2.12-2.12-4.69-2.12-7.7,0-2.65.52-4.81,1.56-6.47,1.04-1.66,2.44-2.96,4.19-3.91,1.75-.95,3.68-1.66,5.8-2.13,2.12-.48,4.26-.86,6.41-1.14,2.81-.37,5.1-.65,6.86-.84,1.76-.19,3.04-.52,3.86-.99.81-.46,1.22-1.27,1.22-2.41v-.24c0-2.98-.82-5.29-2.44-6.93-1.62-1.65-4.07-2.47-7.35-2.46-3.4,0-6.06.75-7.99,2.24-1.93,1.49-3.28,3.08-4.06,4.77l-6.76-2.4c1.2-2.82,2.81-5.02,4.83-6.6,2.02-1.58,4.23-2.69,6.63-3.33,2.4-.64,4.77-.96,7.1-.96,1.49,0,3.2.17,5.14.52,1.94.35,3.82,1.06,5.64,2.15,1.82,1.08,3.34,2.72,4.55,4.91,1.21,2.19,1.82,5.12,1.82,8.8l.05,30.52h-7.12s0-6.26,0-6.26h-.36c-.48,1.01-1.28,2.08-2.41,3.23-1.12,1.15-2.62,2.12-4.49,2.93-1.87.81-4.15,1.21-6.84,1.22ZM860.04,278.26c2.82,0,5.19-.56,7.13-1.67,1.94-1.11,3.41-2.54,4.4-4.29.99-1.75,1.49-3.59,1.48-5.52v-6.51c-.31.36-.97.69-1.98.98-1.02.29-2.18.55-3.5.76-1.32.21-2.59.4-3.83.55-1.24.15-2.24.28-3,.38-1.85.25-3.57.63-5.17,1.17s-2.88,1.33-3.86,2.39c-.97,1.06-1.46,2.49-1.46,4.3,0,2.47.93,4.34,2.77,5.59s4.18,1.88,7.02,1.88Z"></path>
          <path class="cls-1" d="M900.33,221.74l.09,61.77h-7.12s-.09-61.76-.09-61.76h7.12Z"></path>
          <path class="cls-1" d="M963.48,221.65h-7.72s-22.59,61.82-22.59,61.82h7.84s6.18-17.52,6.18-17.52l24.99-.03,6.23,17.48h7.85s-22.78-61.75-22.78-61.75ZM949.54,259.31l9.85-27.88h.49l9.93,27.86-20.27.02Z"></path>
          <path class="cls-1" d="M1013.75,301.68c-3.44,0-6.39-.43-8.87-1.3s-4.53-2.01-6.17-3.43c-1.64-1.42-2.95-2.93-3.91-4.53l5.67-3.99c.64.84,1.46,1.81,2.45,2.91.99,1.09,2.34,2.05,4.06,2.86,1.72.81,3.98,1.22,6.77,1.21,3.74,0,6.82-.92,9.25-2.73,2.43-1.81,3.64-4.65,3.64-8.51v-9.41s-.62,0-.62,0c-.52.84-1.26,1.89-2.21,3.12-.95,1.24-2.32,2.34-4.1,3.29-1.78.96-4.18,1.44-7.19,1.44-3.74,0-7.09-.88-10.06-2.64s-5.31-4.34-7.04-7.71c-1.72-3.38-2.59-7.48-2.6-12.3,0-4.75.82-8.88,2.49-12.42,1.66-3.53,3.98-6.27,6.96-8.21,2.97-1.94,6.41-2.92,10.31-2.93,3.02,0,5.42.49,7.2,1.48,1.78.99,3.15,2.12,4.11,3.37.96,1.26,1.7,2.29,2.22,3.09h.72s-.01-7.36-.01-7.36h6.88s.07,47.64.07,47.64c0,3.98-.89,7.22-2.68,9.73-1.8,2.51-4.21,4.35-7.23,5.53-3.03,1.18-6.39,1.77-10.09,1.78ZM1013.47,276.22c2.86,0,5.27-.66,7.24-1.97,1.97-1.31,3.46-3.19,4.49-5.65s1.53-5.39,1.53-8.81c0-3.34-.51-6.28-1.52-8.83-1.01-2.55-2.5-4.55-4.47-6-1.97-1.45-4.41-2.17-7.3-2.16-3.02,0-5.52.77-7.52,2.3-2,1.53-3.49,3.58-4.48,6.16s-1.49,5.43-1.48,8.57c0,3.22.52,6.06,1.54,8.52,1.02,2.46,2.53,4.39,4.53,5.79,2,1.39,4.49,2.09,7.47,2.08Z"></path>
          <path class="cls-1" d="M1085.44,259.46c-.01-4.32-.58-7.96-1.73-10.91-1.16-2.96-2.7-5.33-4.63-7.13-1.93-1.8-4.08-3.09-6.43-3.9-2.35-.8-4.74-1.2-7.15-1.19-4.18,0-7.84,1.03-10.96,3.08-3.12,2.04-5.55,4.88-7.29,8.51-1.73,3.64-2.59,7.82-2.59,12.57.01,4.74.89,8.9,2.63,12.47,1.75,3.56,4.23,6.33,7.46,8.31s7.08,2.96,11.54,2.95c3.14,0,5.97-.49,8.48-1.47,2.51-.98,4.62-2.35,6.33-4.11,1.7-1.76,2.92-3.81,3.64-6.15l-6.88-1.92c-.6,1.61-1.46,2.96-2.56,4.03-1.11,1.08-2.42,1.89-3.93,2.42-1.52.54-3.21.81-5.08.81-2.88,0-5.4-.62-7.58-1.87-2.17-1.26-3.87-3.09-5.09-5.52-1.11-2.19-1.71-4.83-1.82-7.91l33.64-.05v-3.02ZM1051.82,256.39c.12-2.15.66-4.19,1.6-6.1,1.11-2.23,2.69-4.05,4.75-5.45s4.5-2.1,7.34-2.11c2.57,0,4.81.59,6.71,1.77,1.9,1.19,3.37,2.8,4.41,4.85,1.04,2.05,1.56,4.38,1.57,7l-26.38.04Z"></path>
          <path class="cls-1" d="M1103.49,255.34l.04,27.87h-7.12s-.07-46.32-.07-46.32h6.88s.01,7.23.01,7.23h.6c1.08-2.35,2.73-4.25,4.94-5.69,2.21-1.44,5.06-2.17,8.56-2.17,3.14,0,5.88.63,8.24,1.9,2.35,1.27,4.19,3.2,5.5,5.78s1.97,5.84,1.98,9.78l.04,29.44h-7.12s-.04-28.95-.04-28.95c0-3.64-.96-6.48-2.85-8.52-1.89-2.04-4.49-3.05-7.79-3.05-2.27,0-4.3.5-6.08,1.49-1.78.99-3.18,2.43-4.2,4.32s-1.53,4.18-1.53,6.88Z"></path>
          <path class="cls-1" d="M1167.2,282.87c-.48.18-1.16.36-2.02.56-.86.19-1.96.29-3.29.29-2.01,0-3.97-.43-5.89-1.29-1.93-.86-3.52-2.18-4.78-3.94-1.26-1.77-1.89-4-1.89-6.7l-.04-28.95h-7s-.01-6.02-.01-6.02h7s-.02-11.11-.02-11.11h7.12s.02,11.09.02,11.09l9.89-.02v6.03s-9.89.02-9.89.02l.04,27.02c.01,2.01.31,3.52.9,4.51.59.99,1.36,1.66,2.3,1.99.93.33,1.92.49,2.97.49.78,0,1.42-.05,1.93-.14.5-.09.9-.16,1.2-.23l1.46,6.4Z"></path>
          <path class="cls-1" d="M1227.12,221.26h-7.72s-22.59,61.81-22.59,61.81h7.84s6.18-17.51,6.18-17.51l24.98-.04,6.24,17.49,7.84-.02-22.77-61.73ZM1213.18,258.91l9.85-27.88h.48l9.93,27.85-20.26.03Z"></path>
          <path class="cls-1" d="M1267.01,221.19l.09,61.77h-7.48s-.09-61.76-.09-61.76h7.48Z"></path>
        </g>
      </g>
    </g>
  </g>
</svg>