<?xml version="1.0" encoding="UTF-8"?>
<svg id="Layer_2" data-name="Layer 2" xmlns="http://www.w3.org/2000/svg" viewBox="0 0 679.56 88.51">
  <defs>
    
  </defs>
  <g id="Layer_1-2" data-name="Layer 1">
    <g>
      <g>
        <path class="cls-1" d="M175.99,66.9c-6.05,0-10.97-1.3-14.78-3.91-3.81-2.61-6.14-6.28-7-11.01l9.85-1.48c.61,2.52,2.03,4.5,4.26,5.95,2.22,1.45,4.99,2.18,8.31,2.18,3.01,0,5.36-.6,7.07-1.8,1.7-1.2,2.55-2.84,2.55-4.94,0-1.23-.3-2.22-.9-2.99-.6-.76-1.85-1.49-3.75-2.18-1.9-.69-4.8-1.54-8.7-2.56-4.27-1.08-7.65-2.24-10.15-3.48-2.5-1.24-4.28-2.7-5.34-4.36-1.06-1.66-1.59-3.68-1.59-6.04,0-2.94.8-5.5,2.39-7.68,1.59-2.19,3.84-3.88,6.74-5.08,2.9-1.2,6.3-1.8,10.2-1.8s7.2.58,10.17,1.75c2.98,1.17,5.39,2.82,7.23,4.96,1.84,2.14,2.95,4.65,3.31,7.53l-9.85,1.75c-.34-2.34-1.46-4.18-3.36-5.53-1.9-1.35-4.37-2.08-7.41-2.2-2.92-.12-5.28.35-7.09,1.42-1.81,1.06-2.72,2.52-2.72,4.38,0,1.08.35,1.99,1.04,2.74.69.75,2.03,1.47,4.03,2.16,1.99.69,4.94,1.51,8.84,2.47,4.17,1.05,7.49,2.21,9.94,3.48,2.46,1.27,4.21,2.79,5.27,4.54,1.06,1.75,1.59,3.87,1.59,6.36,0,4.79-1.79,8.55-5.36,11.28s-8.51,4.09-14.8,4.09Z"></path>
        <path class="cls-1" d="M218.06,24.62v21.43c0,1.95.02,3.64.07,5.08.05,1.44.36,2.65.94,3.64,1.11,1.86,2.86,2.91,5.27,3.17,2.41.25,5.24.15,8.5-.3v7.96c-3.13.59-6.2.85-9.21.76-3.01-.09-5.69-.66-8.06-1.71-2.36-1.05-4.14-2.69-5.34-4.94-1.07-2.01-1.65-4.05-1.72-6.13-.08-2.08-.12-4.44-.12-7.08v-21.88h-9.53v-7.55h9.53V3.59h9.67v13.48h14.78v7.55h-14.78Z"></path>
        <path class="cls-1" d="M260.64,66.94c-4.97,0-9.28-1.09-12.94-3.28-3.65-2.19-6.47-5.2-8.45-9.05-1.98-3.85-2.97-8.29-2.97-13.32s1.01-9.52,3.04-13.37c2.03-3.85,4.86-6.84,8.52-8.99s7.92-3.21,12.8-3.21,9.28,1.09,12.94,3.28,6.48,5.2,8.47,9.03c2,3.83,2.99,8.25,2.99,13.25s-1.01,9.52-3.01,13.37c-2.01,3.85-4.84,6.86-8.49,9.03-3.65,2.17-7.95,3.26-12.89,3.26ZM260.64,58.09c4.76,0,8.31-1.57,10.66-4.7s3.52-7.17,3.52-12.11-1.19-9.11-3.57-12.15c-2.38-3.04-5.92-4.56-10.61-4.56-3.22,0-5.88.71-7.96,2.13-2.09,1.42-3.64,3.39-4.65,5.89-1.01,2.5-1.52,5.4-1.52,8.69,0,5.09,1.2,9.17,3.59,12.22,2.39,3.05,5.91,4.58,10.54,4.58Z"></path>
        <path class="cls-1" d="M320.07,17.07v8.81c-1.62-.42-3.43-.54-5.41-.36-1.98.18-3.79.79-5.45,1.84-1.57.99-2.8,2.19-3.71,3.6-.9,1.4-1.55,2.97-1.95,4.69-.4,1.72-.6,3.54-.6,5.46v24.49h-9.71V17.07h8.56v7.78c.35-.63.75-1.24,1.19-1.82.99-1.31,2.12-2.38,3.41-3.22,1.26-.9,2.66-1.59,4.21-2.09,1.55-.49,3.14-.79,4.77-.9,1.62-.1,3.19-.02,4.69.25Z"></path>
        <path class="cls-1" d="M370.57,43.98c.37-5.81-.33-10.82-2.09-15.05-1.77-4.22-4.43-7.48-7.99-9.77-3.56-2.29-7.87-3.44-12.93-3.44s-9.1,1.07-12.76,3.19c-3.65,2.13-6.49,5.14-8.54,9.03-2.04,3.9-3.06,8.5-3.06,13.8,0,5,1.04,9.4,3.11,13.18,2.07,3.79,4.97,6.74,8.7,8.86,3.73,2.11,8.06,3.16,13.01,3.16s9.19-1.19,13.12-3.57c3.92-2.38,6.86-5.74,8.79-10.08l-9.44-2.93c-1.23,2.49-2.94,4.4-5.13,5.73-2.2,1.34-4.8,2-7.8,2-4.58,0-8.08-1.46-10.5-4.38-2-2.42-3.18-5.66-3.53-9.73h37.04ZM333.74,36.66c.52-3.37,1.62-6.1,3.32-8.18,2.42-2.96,6.05-4.44,10.86-4.44,4.36,0,7.61,1.34,9.74,4.04,1.6,2.03,2.62,4.89,3.05,8.58h-26.97Z"></path>
        <path class="cls-1" d="M396.35,9.12V0h9.62v9.12h-9.62ZM396.35,65.6V17.07h9.62v48.52h-9.62Z"></path>
        <path class="cls-1" d="M462.5,38.64v26.96h-9.75v-23.86c0-1.89-.17-3.83-.49-5.82-.32-1.99-.93-3.84-1.84-5.55-.9-1.71-2.18-3.08-3.82-4.13-1.64-1.05-3.78-1.57-6.42-1.57-1.72,0-3.35.27-4.88.83-1.54.55-2.88,1.44-4.03,2.67-1.15,1.23-2.06,2.85-2.72,4.85-.66,2.01-.99,4.45-.99,7.33v25.25h-9.75V17.07h8.6v5.84c1.38-1.72,3.04-3.15,4.98-4.31,3.16-1.89,6.98-2.83,11.46-2.83,3.43,0,6.32.54,8.65,1.62,2.33,1.07,4.23,2.49,5.69,4.24,1.46,1.75,2.57,3.66,3.34,5.73.76,2.07,1.29,4.09,1.56,6.07.28,1.97.41,3.71.41,5.21Z"></path>
        <path class="cls-1" d="M491.55,66.9c-6.05,0-10.97-1.3-14.78-3.91-3.81-2.61-6.14-6.28-7-11.01l9.85-1.48c.61,2.52,2.03,4.5,4.26,5.95,2.22,1.45,5,2.18,8.31,2.18,3.01,0,5.36-.6,7.07-1.8,1.7-1.2,2.55-2.84,2.55-4.94,0-1.23-.3-2.22-.9-2.99s-1.85-1.49-3.75-2.18c-1.9-.69-4.8-1.54-8.7-2.56-4.27-1.08-7.65-2.24-10.15-3.48-2.5-1.24-4.28-2.7-5.34-4.36s-1.59-3.68-1.59-6.04c0-2.94.8-5.5,2.39-7.68,1.59-2.19,3.84-3.88,6.74-5.08s6.3-1.8,10.2-1.8,7.2.58,10.17,1.75c2.98,1.17,5.39,2.82,7.23,4.96,1.84,2.14,2.95,4.65,3.31,7.53l-9.85,1.75c-.34-2.34-1.46-4.18-3.36-5.53-1.9-1.35-4.37-2.08-7.41-2.2-2.92-.12-5.28.35-7.09,1.42-1.81,1.06-2.72,2.52-2.72,4.38,0,1.08.35,1.99,1.04,2.74.69.75,2.03,1.47,4.03,2.16s4.94,1.51,8.84,2.47c4.17,1.05,7.49,2.21,9.94,3.48s4.21,2.79,5.27,4.54c1.06,1.75,1.59,3.87,1.59,6.36,0,4.79-1.79,8.55-5.36,11.28s-8.51,4.09-14.8,4.09Z"></path>
        <path class="cls-1" d="M520.88,9.12V0h9.62v9.12h-9.62ZM520.88,65.6V17.07h9.62v48.52h-9.62Z"></path>
        <path class="cls-1" d="M576.95,17.07v4.36c-.85-.88-1.78-1.66-2.79-2.36-3.21-2.23-7.16-3.35-11.85-3.35s-8.7,1.12-12.09,3.35c-3.39,2.23-6,5.27-7.85,9.12-1.84,3.85-2.76,8.22-2.76,13.1s.92,9.22,2.74,13.1c1.83,3.88,4.42,6.94,7.78,9.18,3.36,2.25,7.36,3.37,11.99,3.37s8.75-1.13,11.97-3.39c.6-.42,1.17-.86,1.71-1.36v4.62c.03,2.78-.46,5.12-1.45,7.01-1,1.89-2.47,3.3-4.4,4.24-1.93.95-4.27,1.42-7,1.42-2.21,0-4.31-.48-6.3-1.44-2-.96-3.53-2.47-4.61-4.54l-8.88,4.41c1.35,2.3,3.05,4.24,5.11,5.81,2.05,1.58,4.33,2.77,6.83,3.58,2.5.81,5.09,1.21,7.76,1.21,3.87,0,7.33-.52,10.38-1.57,3.05-1.05,5.57-2.64,7.55-4.77,1.98-2.12,3.32-4.82,4.03-8.08.24-1.17.41-2.34.5-3.51.1-1.16.14-2.39.14-3.68V17.07h-8.51ZM575.57,50.18c-.92,2.58-2.38,4.6-4.38,6.07-1.99,1.47-4.57,2.2-7.73,2.2s-5.61-.76-7.62-2.29c-2.01-1.53-3.52-3.59-4.51-6.18-1-2.59-1.5-5.49-1.5-8.69s.5-6.05,1.5-8.63c.99-2.57,2.52-4.63,4.58-6.15,2.05-1.53,4.68-2.29,7.87-2.29,3.01,0,5.49.71,7.44,2.15,1.94,1.44,3.39,3.45,4.32,6.02.94,2.58,1.41,5.54,1.41,8.9s-.46,6.32-1.38,8.89Z"></path>
        <path class="cls-1" d="M641.07,38.64v26.96h-9.76v-23.86c0-1.89-.16-3.83-.48-5.82-.32-1.99-.94-3.84-1.84-5.55-.91-1.71-2.18-3.08-3.82-4.13-1.64-1.05-3.79-1.57-6.42-1.57-1.72,0-3.35.27-4.88.83-1.54.55-2.88,1.44-4.03,2.67-1.15,1.23-2.06,2.85-2.72,4.85-.66,2.01-.99,4.45-.99,7.33v25.25h-9.76V.9h8.61v22c1.38-1.71,3.04-3.14,4.97-4.3,3.16-1.89,6.98-2.83,11.47-2.83,3.43,0,6.32.54,8.65,1.62,2.33,1.07,4.23,2.49,5.69,4.24,1.45,1.75,2.57,3.66,3.33,5.73.77,2.07,1.29,4.09,1.57,6.07.27,1.97.41,3.71.41,5.21Z"></path>
        <path class="cls-1" d="M664.78,24.62v21.43c0,1.95.02,3.64.07,5.08.05,1.44.36,2.65.94,3.64,1.11,1.86,2.86,2.91,5.27,3.17,2.41.25,5.24.15,8.5-.3v7.96c-3.13.59-6.2.85-9.21.76-3.01-.09-5.69-.66-8.06-1.71-2.36-1.05-4.14-2.69-5.34-4.94-1.07-2.01-1.65-4.05-1.72-6.13-.08-2.08-.12-4.44-.12-7.08v-21.88h-9.53v-7.55h9.53V3.59h9.67v13.48h14.78v7.55h-14.78Z"></path>
      </g>
      <path class="cls-2" d="M118.14,55.02c0-4.09-1.66-7.79-4.34-10.47-2.33-2.33-5.43-3.89-8.89-4.25h-3.17c.15-.02.3-.03.44-.04-.15-.01-.3-.03-.44-.04-3.46-.37-6.56-1.92-8.89-4.25-2.33-2.33-3.89-5.43-4.25-8.89-.02-.15-.03-.3-.04-.45-.01.15-.03.3-.04.45v-3.17c-.37-3.46-1.92-6.56-4.25-8.89-2.68-2.68-6.38-4.34-10.47-4.34-7.64,0-13.94,5.79-14.73,13.23v3.17c-.02-.15-.03-.3-.04-.45-.01.15-.03.3-.04.45-.37,3.46-1.92,6.56-4.25,8.89-2.33,2.33-5.43,3.89-8.89,4.25-.15.02-.3.03-.44.04.15.01.3.03.44.04h-3.17c.15-.02.3-.03.44-.04-.15-.01-.3-.03-.44-.04-3.46-.37-6.56-1.92-8.89-4.25-2.33-2.33-3.89-5.43-4.25-8.89-.02-.15-.03-.3-.04-.45-.01.15-.03.3-.04.45v-3.17c-.37-3.46-1.92-6.56-4.25-8.89-2.68-2.68-6.38-4.34-10.47-4.34C7.08,10.68.79,16.47,0,23.9v3.17c.37,3.46,1.92,6.56,4.25,8.89,2.33,2.33,5.43,3.89,8.89,4.25h3.17c-.15.02-.3.03-.44.04.15.01.3.03.44.04,3.46.37,6.56,1.92,8.89,4.25,2.33,2.33,3.89,5.43,4.25,8.89.02.15.03.3.04.45.01-.15.03-.3.04-.45v3.17c.37,3.46,1.92,6.56,4.25,8.89,2.33,2.33,5.43,3.89,8.89,4.25h3.17c3.46-.37,6.56-1.92,8.89-4.25,2.33-2.33,3.89-5.43,4.25-8.89v-3.17c.02.15.03.3.04.45.01-.15.03-.3.04-.45.73-6.91,6.23-12.41,13.14-13.14.15-.02.3-.03.44-.04-.15-.01-.3-.03-.44-.04h3.17c-.15.02-.3.03-.44.04.15.01.3.03.44.04,3.46.37,6.56,1.92,8.89,4.25,2.33,2.33,3.89,5.43,4.25,8.89.02.15.03.3.04.45.01-.15.03-.3.04-.45v3.17c.37,3.46,1.92,6.56,4.25,8.89,2.33,2.33,5.43,3.89,8.89,4.25h3.17c3.46-.37,6.56-1.92,8.89-4.25,2.68-2.68,4.34-6.38,4.34-10.47Z"></path>
    </g>
  </g>
</svg>