<?xml version="1.0" encoding="UTF-8"?>
<svg id="Layer_2" data-name="Layer 2" xmlns="http://www.w3.org/2000/svg" viewBox="0 0 573.18 66.16">
  <defs>
    
  </defs>
  <g id="Layer_1-2" data-name="Layer 1">
    <g>
      <g>
        <path class="cls-1" d="M175.99,63.31c-6.05,0-10.97-1.3-14.78-3.91-3.81-2.61-6.14-6.28-7-11.01l9.85-1.48c.61,2.52,2.03,4.5,4.26,5.95,2.22,1.45,4.99,2.18,8.31,2.18,3.01,0,5.36-.6,7.07-1.8,1.7-1.2,2.55-2.84,2.55-4.94,0-1.23-.3-2.22-.9-2.99-.6-.76-1.85-1.49-3.75-2.18-1.9-.69-4.8-1.54-8.7-2.56-4.27-1.08-7.65-2.24-10.15-3.48-2.5-1.24-4.28-2.7-5.34-4.36-1.06-1.66-1.59-3.68-1.59-6.04,0-2.94.8-5.5,2.39-7.68,1.59-2.19,3.84-3.88,6.74-5.08,2.9-1.2,6.3-1.8,10.2-1.8s7.2.58,10.17,1.75c2.98,1.17,5.39,2.82,7.23,4.96,1.84,2.14,2.95,4.65,3.31,7.53l-9.85,1.75c-.34-2.34-1.46-4.18-3.36-5.53-1.9-1.35-4.37-2.08-7.41-2.2-2.92-.12-5.28.35-7.09,1.42-1.81,1.06-2.72,2.52-2.72,4.38,0,1.08.35,1.99,1.04,2.74.69.75,2.03,1.47,4.03,2.16,1.99.69,4.94,1.51,8.84,2.47,4.17,1.05,7.49,2.21,9.94,3.48,2.46,1.27,4.21,2.79,5.27,4.54,1.06,1.75,1.59,3.87,1.59,6.36,0,4.79-1.79,8.55-5.36,11.28s-8.51,4.09-14.8,4.09Z"></path>
        <path class="cls-1" d="M218.06,21.03v21.43c0,1.95.02,3.64.07,5.08.05,1.44.36,2.65.94,3.64,1.11,1.86,2.86,2.91,5.27,3.17,2.41.25,5.24.15,8.5-.3v7.96c-3.13.59-6.2.85-9.21.76-3.01-.09-5.69-.66-8.06-1.71-2.36-1.05-4.14-2.69-5.34-4.94-1.07-2.01-1.65-4.05-1.72-6.13-.08-2.08-.12-4.44-.12-7.08v-21.88h-9.53v-7.55h9.53V0h9.67v13.48h14.78v7.55h-14.78Z"></path>
        <path class="cls-1" d="M260.64,63.35c-4.97,0-9.28-1.09-12.94-3.28-3.65-2.19-6.47-5.2-8.45-9.05-1.98-3.85-2.97-8.29-2.97-13.32s1.01-9.52,3.04-13.37c2.03-3.85,4.86-6.84,8.52-8.99s7.92-3.21,12.8-3.21,9.28,1.09,12.94,3.28,6.48,5.2,8.47,9.03c2,3.83,2.99,8.25,2.99,13.25s-1.01,9.52-3.01,13.37c-2.01,3.85-4.84,6.86-8.49,9.03-3.65,2.17-7.95,3.26-12.89,3.26ZM260.64,54.5c4.76,0,8.31-1.57,10.66-4.7s3.52-7.17,3.52-12.11-1.19-9.11-3.57-12.15c-2.38-3.04-5.92-4.56-10.61-4.56-3.22,0-5.88.71-7.96,2.13-2.09,1.42-3.64,3.39-4.65,5.89-1.01,2.5-1.52,5.4-1.52,8.69,0,5.09,1.2,9.17,3.59,12.22,2.39,3.05,5.91,4.58,10.54,4.58Z"></path>
        <path class="cls-1" d="M320.07,13.48v8.81c-1.62-.42-3.43-.54-5.41-.36-1.98.18-3.79.79-5.45,1.84-1.57.99-2.8,2.19-3.71,3.6-.9,1.4-1.55,2.97-1.95,4.69-.4,1.72-.6,3.54-.6,5.46v24.49h-9.71V13.48h8.56v7.78c.35-.63.75-1.24,1.19-1.82.99-1.31,2.12-2.38,3.41-3.22,1.26-.9,2.66-1.59,4.21-2.09,1.55-.49,3.14-.79,4.77-.9,1.62-.1,3.19-.02,4.69.25Z"></path>
        <path class="cls-1" d="M370.57,40.39c.37-5.81-.33-10.82-2.09-15.05-1.77-4.22-4.43-7.48-7.99-9.77-3.56-2.29-7.87-3.44-12.93-3.44s-9.1,1.07-12.76,3.19c-3.65,2.13-6.49,5.14-8.54,9.03-2.04,3.9-3.06,8.5-3.06,13.8,0,5,1.04,9.4,3.11,13.18,2.07,3.79,4.97,6.74,8.7,8.86,3.73,2.11,8.06,3.16,13.01,3.16s9.19-1.19,13.12-3.57c3.92-2.38,6.86-5.74,8.79-10.08l-9.44-2.93c-1.23,2.49-2.94,4.4-5.13,5.73-2.2,1.34-4.8,2-7.8,2-4.58,0-8.08-1.46-10.5-4.38-2-2.42-3.18-5.66-3.53-9.73h37.04ZM333.74,33.07c.52-3.37,1.62-6.1,3.32-8.18,2.42-2.96,6.05-4.44,10.86-4.44,4.36,0,7.61,1.34,9.74,4.04,1.6,2.03,2.62,4.89,3.05,8.58h-26.97Z"></path>
        <path class="cls-1" d="M416.7,63.35c-5.09,0-9.42-1.11-12.98-3.32-3.56-2.22-6.28-5.26-8.17-9.12-1.89-3.86-2.85-8.25-2.88-13.16.03-5,1.01-9.43,2.95-13.28,1.93-3.85,4.7-6.87,8.29-9.05,3.59-2.19,7.9-3.28,12.94-3.28,5.43,0,10.07,1.32,13.93,3.95,3.85,2.64,6.39,6.25,7.62,10.83l-9.58,2.7c-.95-2.72-2.51-4.84-4.67-6.36-2.16-1.51-4.64-2.27-7.44-2.27-3.16,0-5.75.73-7.78,2.18-2.03,1.45-3.53,3.44-4.51,5.95-.98,2.52-1.49,5.39-1.52,8.63.03,5,1.2,9.05,3.52,12.13s5.75,4.63,10.29,4.63c3.1,0,5.61-.7,7.53-2.09,1.92-1.39,3.38-3.39,4.4-6l9.76,2.25c-1.63,4.73-4.31,8.36-8.06,10.9-3.75,2.53-8.29,3.8-13.63,3.8Z"></path>
        <path class="cls-1" d="M485.43,26.42c-.18-1.77-.67-3.44-1.47-5.03-1.54-3.21-3.95-5.55-7.25-7.03-3.3-1.49-7.18-2.23-11.63-2.23-5.73,0-10.33,1.23-13.78,3.69-3.46,2.45-5.8,5.76-7.02,9.93l8.97,2.69c.86-2.72,2.38-4.68,4.56-5.86,2.18-1.18,4.57-1.77,7.18-1.77,4.15,0,7.07.92,8.77,2.76,1.49,1.61,2.3,3.96,2.44,7.06-1.88.26-3.77.52-5.66.78-3.08.42-6.02.87-8.82,1.35-2.79.48-5.29,1.03-7.5,1.66-2.55.81-4.7,1.86-6.44,3.17-1.75,1.3-3.07,2.88-3.96,4.74-.89,1.85-1.34,4.01-1.34,6.47,0,2.63.64,5.05,1.91,7.25s3.15,3.97,5.64,5.3c2.49,1.34,5.57,2,9.25,2,4.64,0,8.54-.9,11.72-2.71,2.38-1.36,4.44-3.25,6.19-5.68v7.05h8.52v-29.88c0-2.04-.09-3.94-.28-5.71ZM476.02,41.2c-.08,1.8-.38,3.42-.9,4.86-.37,1.58-1.15,3.11-2.35,4.58-1.2,1.47-2.78,2.67-4.74,3.62-1.96.94-4.31,1.41-7.04,1.41-2.06,0-3.75-.31-5.07-.94-1.32-.63-2.3-1.48-2.94-2.54-.65-1.06-.97-2.23-.97-3.48s.3-2.38.9-3.28c.6-.9,1.41-1.67,2.44-2.29,1.03-.63,2.2-1.17,3.52-1.62,1.56-.48,3.35-.89,5.36-1.24,2.01-.34,4.26-.69,6.75-1.05,1.59-.23,3.31-.48,5.13-.75-.02.79-.05,1.7-.09,2.72Z"></path>
        <path class="cls-1" d="M522.58,13.48v8.81c-1.63-.42-3.43-.54-5.41-.36-1.98.18-3.8.79-5.45,1.84-1.57.99-2.8,2.19-3.71,3.6-.9,1.4-1.56,2.97-1.96,4.69-.39,1.72-.59,3.54-.59,5.46v24.49h-9.72V13.48h8.57v7.78c.35-.63.75-1.24,1.19-1.82.98-1.31,2.12-2.38,3.41-3.22,1.26-.9,2.66-1.59,4.21-2.09,1.55-.49,3.14-.79,4.77-.9,1.62-.1,3.19-.02,4.69.25Z"></path>
        <path class="cls-1" d="M573.08,40.39c.37-5.81-.33-10.82-2.09-15.05-1.77-4.22-4.43-7.48-7.99-9.77-3.56-2.29-7.87-3.44-12.94-3.44s-9.1,1.07-12.75,3.19c-3.65,2.13-6.5,5.14-8.54,9.03-2.04,3.9-3.06,8.5-3.06,13.8,0,5,1.04,9.4,3.11,13.18,2.07,3.79,4.97,6.74,8.7,8.86,3.73,2.11,8.06,3.16,13,3.16s9.2-1.19,13.12-3.57c3.93-2.38,6.86-5.74,8.8-10.08l-9.44-2.93c-1.23,2.49-2.94,4.4-5.13,5.73-2.2,1.34-4.8,2-7.81,2-4.57,0-8.07-1.46-10.49-4.38-2.01-2.42-3.19-5.66-3.53-9.73h37.04ZM536.25,33.07c.51-3.37,1.62-6.1,3.32-8.18,2.42-2.96,6.04-4.44,10.86-4.44,4.36,0,7.61,1.34,9.74,4.04,1.6,2.03,2.62,4.89,3.05,8.58h-26.97Z"></path>
      </g>
      <path class="cls-2" d="M118.14,51.43c0-4.09-1.66-7.79-4.34-10.47-2.33-2.33-5.43-3.89-8.89-4.25h-3.17c.15-.02.3-.03.44-.04-.15-.01-.3-.03-.44-.04-3.46-.37-6.56-1.92-8.89-4.25-2.33-2.33-3.89-5.43-4.25-8.89-.02-.15-.03-.3-.04-.45-.01.15-.03.3-.04.45v-3.17c-.37-3.46-1.92-6.56-4.25-8.89-2.68-2.68-6.38-4.34-10.47-4.34-7.64,0-13.94,5.79-14.73,13.23v3.17c-.02-.15-.03-.3-.04-.45-.01.15-.03.3-.04.45-.37,3.46-1.92,6.56-4.25,8.89-2.33,2.33-5.43,3.89-8.89,4.25-.15.02-.3.03-.44.04.15.01.3.03.44.04h-3.17c.15-.02.3-.03.44-.04-.15-.01-.3-.03-.44-.04-3.46-.37-6.56-1.92-8.89-4.25-2.33-2.33-3.89-5.43-4.25-8.89-.02-.15-.03-.3-.04-.45-.01.15-.03.3-.04.45v-3.17c-.37-3.46-1.92-6.56-4.25-8.89-2.68-2.68-6.38-4.34-10.47-4.34C7.08,7.08.79,12.88,0,20.31v3.17c.37,3.46,1.92,6.56,4.25,8.89,2.33,2.33,5.43,3.89,8.89,4.25h3.17c-.15.02-.3.03-.44.04.15.01.3.03.44.04,3.46.37,6.56,1.92,8.89,4.25,2.33,2.33,3.89,5.43,4.25,8.89.02.15.03.3.04.45.01-.15.03-.3.04-.45v3.17c.37,3.46,1.92,6.56,4.25,8.89,2.33,2.33,5.43,3.89,8.89,4.25h3.17c3.46-.37,6.56-1.92,8.89-4.25,2.33-2.33,3.89-5.43,4.25-8.89v-3.17c.02.15.03.3.04.45.01-.15.03-.3.04-.45.73-6.91,6.23-12.41,13.14-13.14.15-.02.3-.03.44-.04-.15-.01-.3-.03-.44-.04h3.17c-.15.02-.3.03-.44.04.15.01.3.03.44.04,3.46.37,6.56,1.92,8.89,4.25,2.33,2.33,3.89,5.43,4.25,8.89.02.15.03.3.04.45.01-.15.03-.3.04-.45v3.17c.37,3.46,1.92,6.56,4.25,8.89,2.33,2.33,5.43,3.89,8.89,4.25h3.17c3.46-.37,6.56-1.92,8.89-4.25,2.68-2.68,4.34-6.38,4.34-10.47Z"></path>
    </g>
  </g>
</svg>