<?xml version="1.0" encoding="UTF-8"?>
<svg id="Layer_2" data-name="Layer 2" xmlns="http://www.w3.org/2000/svg" viewBox="0 0 534.51 267.36">
  <defs>
    
  </defs>
  <g id="Layer_1-2" data-name="Layer 1">
    <path class="cls-1" d="M534.51,200.25c-.03-18.49-7.55-35.22-19.69-47.33-10.55-10.53-24.57-17.54-40.22-19.18l-14.33.02c.68-.07,1.34-.14,2.01-.19-.68-.05-1.34-.12-2.01-.19-15.63-1.64-29.66-8.65-40.22-19.18-10.56-10.51-17.61-24.52-19.3-40.17-.07-.66-.14-1.34-.19-2.01-.05.68-.12,1.35-.19,2.01l-.02-14.33c-1.69-15.63-8.74-29.63-19.3-40.17C368.92,7.44,352.17-.03,333.66,0c-34.57.05-62.98,26.29-66.51,59.91l.02,14.33c-.07-.66-.14-1.34-.19-2.01-.05.68-.12,1.35-.19,2.01-1.64,15.65-8.65,29.68-19.18,40.22-10.51,10.56-24.52,17.61-40.17,19.3-.66.07-1.34.14-2.01.19.68.05,1.35.12,2.01.19l-14.33.02c.68-.07,1.34-.14,2.01-.19-.68-.05-1.34-.12-2.01-.19-15.63-1.64-29.66-8.65-40.22-19.18-10.56-10.51-17.61-24.52-19.3-40.17-.07-.66-.14-1.34-.19-2.01-.05.68-.12,1.35-.19,2.01l-.02-14.33c-1.69-15.63-8.74-29.63-19.3-40.17C101.77,7.84,85.02.37,66.51.4,31.93.45,3.52,26.69,0,60.31l.02,14.33c1.69,15.64,8.74,29.65,19.3,40.17,10.56,10.53,24.59,17.54,40.22,19.18l14.33-.02c-.66.07-1.34.14-2.01.19.68.05,1.35.12,2.01.19,15.65,1.64,29.68,8.65,40.22,19.18,10.56,10.53,17.61,24.54,19.3,40.17.07.68.14,1.34.19,2.01.05-.68.12-1.34.19-2.01l.02,14.33c1.69,15.64,8.74,29.65,19.3,40.17,10.56,10.53,24.59,17.54,40.22,19.18l14.33-.02c15.64-1.69,29.65-8.74,40.17-19.3,10.53-10.55,17.54-24.57,19.18-40.22l-.02-14.33c.07.68.14,1.34.19,2.01.05-.68.12-1.34.19-2.01,3.27-31.26,28.09-56.16,59.34-59.52.68-.07,1.34-.14,2.01-.19-.68-.05-1.34-.12-2.01-.19l14.33-.02c-.66.07-1.34.14-2.01.19.68.05,1.35.12,2.01.19,15.65,1.64,29.68,8.65,40.22,19.18,10.56,10.53,17.61,24.54,19.3,40.17.07.68.14,1.34.19,2.01.05-.68.12-1.34.19-2.01l.02,14.33c1.69,15.64,8.74,29.65,19.3,40.17,10.56,10.53,24.59,17.54,40.22,19.18l14.33-.02c15.64-1.69,29.65-8.74,40.17-19.3,12.11-12.13,19.58-28.88,19.55-47.39Z"></path>
  </g>
</svg>