<svg xmlns="http://www.w3.org/2000/svg" width="24" height="24" fill="none" viewBox="0 0 24 24"><path fill="#24282D" d="M9.6 13.502a1.5 1.5 0 0 1 1.346 1.492v3.649l-.008.153A1.5 1.5 0 0 1 9.6 20.135l-.154.008H5.798l-.153-.008a1.5 1.5 0 0 1-1.34-1.34l-.007-.152v-3.649a1.5 1.5 0 0 1 1.347-1.492l.153-.008h3.648zm9.194 0a1.5 1.5 0 0 1 1.347 1.492v3.649l-.008.153a1.5 1.5 0 0 1-1.34 1.339l-.152.008h-3.649l-.153-.008a1.5 1.5 0 0 1-1.339-1.34l-.008-.152v-3.649a1.5 1.5 0 0 1 1.347-1.492l.153-.008h3.649zm-3.802 5.14h3.649v-3.648h-3.649zm-9.194 0h3.648v-3.648H5.798zM9.6 4.308A1.5 1.5 0 0 1 10.946 5.8v3.647l-.008.154A1.5 1.5 0 0 1 9.6 10.938l-.154.008H5.798l-.153-.008A1.5 1.5 0 0 1 4.305 9.6l-.007-.154V5.8a1.5 1.5 0 0 1 1.347-1.492l.153-.008h3.648zm9.194 0A1.5 1.5 0 0 1 20.141 5.8v3.647l-.008.154a1.5 1.5 0 0 1-1.34 1.338l-.152.008h-3.649l-.153-.008A1.5 1.5 0 0 1 13.5 9.6l-.008-.154V5.8a1.5 1.5 0 0 1 1.347-1.492l.153-.008h3.649zM5.798 9.447h3.648V5.798H5.798zm9.194 0h3.649V5.798h-3.649z"></path></svg>