<svg xmlns="http://www.w3.org/2000/svg" width="24" height="24" fill="none" viewBox="0 0 24 24"><path fill="#24282D" d="M18.06 4.4a3 3 0 0 1 2.845 2.997v6.897a3 3 0 0 1-2.844 2.997l-.156.003h-7.48l-3.188 3.308a.693.693 0 0 1-1.19-.479v-2.831a3 3 0 0 1-2.952-2.998V7.397a3 3 0 0 1 3-3h11.81zM6.096 5.782c-.892 0-1.616.723-1.616 1.615v6.897c0 .892.724 1.615 1.616 1.615h.644c.382 0 .692.31.693.693v1.803l2.199-2.284.052-.048a.7.7 0 0 1 .448-.164h7.774l.165-.008a1.616 1.616 0 0 0 1.45-1.607V7.397c0-.836-.635-1.524-1.45-1.607l-.165-.008zm6.9 5.795a.693.693 0 0 1 0 1.378l-.072.003H7.385a.692.692 0 0 1 0-1.385h5.538zm3.748-3.016a.693.693 0 0 1 0 1.377l-.071.004H7.327a.693.693 0 0 1 0-1.384h9.345z"></path></svg>