<svg xmlns="http://www.w3.org/2000/svg" width="16" height="16" fill="none" viewBox="0 0 16 16"><path fill="#24282D" d="M13.843 7.316v5.313q0 .504-.35.855-.35.35-.855.35H3.382q-.506 0-.855-.35a1.16 1.16 0 0 1-.35-.855V7.303a2 2 0 0 1-.605-.859q-.201-.526-.008-1.139l.674-2.202q.134-.42.453-.678.32-.258.763-.258h9.1q.444 0 .757.246.315.246.458.677l.687 2.215q.195.612-.008 1.136a2.2 2.2 0 0 1-.605.875m-4.366-.482q.546 0 .821-.334t.225-.718l-.405-2.615H8.51V5.8q0 .42.285.727a.9.9 0 0 0 .682.307m-3 0a.98.98 0 0 0 .747-.307q.286-.306.286-.727V3.167H5.902l-.405 2.641q-.053.356.223.69.277.336.757.336m-2.967 0q.371 0 .637-.259.267-.258.33-.649l.392-2.759H3.454a.3.3 0 0 0-.173.048.3.3 0 0 0-.096.144l-.642 2.17q-.132.429.125.867.256.438.842.438m9 0q.54 0 .828-.425.288-.426.139-.88l-.675-2.183a.25.25 0 0 0-.096-.137.3.3 0 0 0-.173-.042h-1.382l.392 2.759q.063.39.33.65.267.258.637.258m-9.128 6h9.256a.2.2 0 0 0 .148-.058.2.2 0 0 0 .058-.147V7.775a.9.9 0 0 1-.334.059q-.45 0-.791-.163a2.1 2.1 0 0 1-.663-.522 2.1 2.1 0 0 1-.664.499 2 2 0 0 1-.874.186 1.9 1.9 0 0 1-.8-.177 2.5 2.5 0 0 1-.708-.508q-.31.331-.7.508t-.792.177q-.452 0-.846-.164a1.8 1.8 0 0 1-.695-.521q-.42.42-.775.553a2 2 0 0 1-.692.132q-.078 0-.161-.01a.6.6 0 0 1-.172-.05v4.855a.2.2 0 0 0 .058.147.2.2 0 0 0 .147.058"></path></svg>