<svg xmlns="http://www.w3.org/2000/svg" width="24" height="24" fill="none" viewBox="0 0 24 24"><path fill="#24282D" fill-rule="evenodd" d="m10.838 4.3-.12.906a2.3 2.3 0 0 1-1.13 1.688l-.804.464a2.3 2.3 0 0 1-2.027.134l-.845-.348-1.161 2.012.724.558a2.3 2.3 0 0 1 .897 1.822v.928a2.3 2.3 0 0 1-.897 1.822l-.724.558 1.161 2.012.845-.348a2.3 2.3 0 0 1 2.027.134l-.65 1.126a1 1 0 0 0-.881-.058l-1.088.448a1 1 0 0 1-1.247-.424l-1.425-2.468a1 1 0 0 1 .256-1.292l.933-.718a1 1 0 0 0 .39-.792v-.928a1 1 0 0 0-.39-.792l-.933-.718a1 1 0 0 1-.256-1.292l1.425-2.468a1 1 0 0 1 1.247-.424l1.088.448a1 1 0 0 0 .881-.058l.803-.464a1 1 0 0 0 .492-.734l.155-1.166A1 1 0 0 1 10.575 3h2.85a1 1 0 0 1 .99.868l.156 1.166a1 1 0 0 0 .491.734l.804.464a1 1 0 0 0 .88.058l1.089-.448a1 1 0 0 1 1.247.424l1.424 2.468a1 1 0 0 1-.256 1.292l-.932.718a1 1 0 0 0-.39.792v.928a1 1 0 0 0 .39.792l.932.718a1 1 0 0 1 .256 1.292l-1.424 2.468a1 1 0 0 1-1.247.424l-1.088-.448a1 1 0 0 0-.881.058l-.804.464a1 1 0 0 0-.49.734l-.156 1.166a1 1 0 0 1-.992.868h-2.849a1 1 0 0 1-.99-.868l-.156-1.166a1 1 0 0 0-.492-.734l-.803-.464.65-1.126.803.464a2.3 2.3 0 0 1 1.13 1.688l.121.906h2.324l.12-.906a2.3 2.3 0 0 1 1.13-1.688l.804-.464a2.3 2.3 0 0 1 2.026-.134l.845.348 1.162-2.012-.724-.558a2.3 2.3 0 0 1-.897-1.822v-.928a2.3 2.3 0 0 1 .897-1.822l.724-.558-1.162-2.012-.845.348a2.3 2.3 0 0 1-2.026-.134l-.804-.464a2.3 2.3 0 0 1-1.13-1.688l-.12-.906zm4.462 7.46a3.3 3.3 0 1 1-6.6-.001 3.3 3.3 0 0 1 6.6 0m-1.3 0a2 2 0 1 1-4-.001 2 2 0 0 1 4 0" clip-rule="evenodd"></path></svg>