<svg xmlns="http://www.w3.org/2000/svg" width="24" height="24" fill="none" viewBox="0 0 24 24"><path fill="#24282D" fill-rule="evenodd" d="M12 19.714a7.714 7.714 0 1 0 0-15.428 7.714 7.714 0 0 0 0 15.428M12 21a9 9 0 1 0 0-18 9 9 0 0 0 0 18" clip-rule="evenodd"></path><path fill="#24282D" fill-rule="evenodd" d="m12.946 8.626-.288 5.06h-1.316l-.288-5.06-.069-1.906h2.03zm.316 7.392c0 .74-.549 1.317-1.262 1.317s-1.248-.576-1.248-1.317c0-.74.535-1.316 1.248-1.316s1.262.576 1.262 1.316" clip-rule="evenodd"></path></svg>