<svg width="20" height="20" viewBox="0 0 20 20" fill="none" xmlns="http://www.w3.org/2000/svg">
<g clip-path="url(#clip0_2638_8826)">
<path d="M11.6236 1.88458C11.6236 3.876 11.0257 5.72815 10.0007 7.27029C9.28074 8.35172 8.35146 9.28172 7.26931 10.001C5.72717 11.026 3.87574 11.6239 1.88431 11.6239C0.987171 11.6239 0.260742 10.8974 0.260742 10.001C0.260742 9.55315 0.442885 9.14672 0.736456 8.85315C1.03003 8.55958 1.43574 8.37743 1.88431 8.37743C5.47003 8.37743 8.37717 5.471 8.37717 1.88529C8.37717 1.43672 8.5586 1.031 8.85217 0.737433C9.14574 0.443862 9.55217 0.261719 10 0.261719C10.4479 0.261719 10.8543 0.443862 11.1479 0.737433C11.4415 1.031 11.6236 1.43672 11.6236 1.88458Z" fill="#0648ED"></path>
<path d="M19.7386 10C19.7386 10.4479 19.5565 10.8543 19.2629 11.1479C18.9693 11.4415 18.5636 11.6229 18.1158 11.6229C16.125 11.6229 14.2729 11.025 12.7308 10C11.6486 9.28074 10.7193 8.35074 10 7.26931C8.97432 5.72717 8.37646 3.87574 8.37646 1.88431C8.37646 1.43574 8.55789 1.03003 8.85146 0.736457C9.14504 0.442885 9.55147 0.260742 9.99932 0.260742C10.4472 0.260742 10.8536 0.442885 11.1472 0.736457C11.4408 1.03003 11.6229 1.43574 11.6229 1.8836C11.6229 5.47003 14.5293 8.37646 18.1158 8.37646C18.5636 8.37646 18.9693 8.5586 19.2629 8.85217C19.5565 9.14574 19.7386 9.55217 19.7386 10Z" fill="#0F76FF"></path>
<path d="M19.7386 9.99955C19.7386 10.4474 19.5565 10.8538 19.2629 11.1474C18.9693 11.441 18.5636 11.6224 18.1158 11.6224C16.3229 11.6224 14.6993 12.3488 13.5243 13.5245C12.3493 14.6995 11.6229 16.3217 11.6229 18.1153C11.6229 18.5638 11.4408 18.9695 11.1472 19.2631C10.8536 19.5567 10.4479 19.7388 9.99932 19.7388C9.10289 19.7388 8.37646 19.0124 8.37646 18.1153C8.37646 16.1245 8.97432 14.2724 10 12.7303C10.3593 12.1888 10.7715 11.6867 11.2293 11.2288C11.6872 10.771 12.1893 10.3588 12.7308 9.99955C14.2729 8.97383 16.1243 8.37598 18.1158 8.37598C18.5636 8.37598 18.9693 8.55812 19.2629 8.85169C19.5565 9.14526 19.7386 9.55169 19.7386 9.99955Z" fill="#0648ED"></path>
<path d="M11.6236 18.1153C11.6236 18.5638 11.4415 18.9695 11.1479 19.2631C10.8543 19.5567 10.4486 19.7388 10 19.7388C9.1036 19.7388 8.37717 19.0124 8.37717 18.1153C8.37717 16.3224 7.65074 14.6995 6.47503 13.5245C5.30003 12.3488 3.67788 11.6224 1.88431 11.6224C0.987171 11.6224 0.260742 10.896 0.260742 9.99955C0.260742 9.55169 0.442885 9.14526 0.736456 8.85169C1.03003 8.55812 1.43574 8.37598 1.88431 8.37598C3.87503 8.37598 5.72717 8.97383 7.26931 9.99955C7.81074 10.3588 8.31288 10.771 8.77074 11.2288C9.2286 11.6867 9.64074 12.1888 10.0007 12.7303C11.0257 14.2724 11.6236 16.1238 11.6236 18.1153Z" fill="#0F76FF"></path>
</g>
<defs>
<clipPath id="clip0_2638_8826">
<rect width="20" height="20" fill="white"></rect>
</clipPath>
</defs>
</svg>