<svg xmlns="http://www.w3.org/2000/svg" width="24" height="24" fill="none" viewBox="0 0 24 24"><path fill="currentColor" d="m10.57 8.897.274 1.023-3.036.813-.274-1.022zm5.283 6.949v-.003l1.058-.001v-.023l-.002-.036-.01-.112a2 2 0 0 0-.08-.354 2.65 2.65 0 0 0-.596-1.017c-.68-.735-1.94-1.353-4.222-1.353-2.284 0-3.543.618-4.223 1.353a2.64 2.64 0 0 0-.596 1.017 2.2 2.2 0 0 0-.09.466l-.001.037-.001.013v.009h1.058v.004l.004-.036c.005-.039.016-.102.04-.181.05-.158.15-.381.363-.61.416-.45 1.347-1.014 3.446-1.014 2.098 0 3.03.564 3.445 1.013.212.23.314.453.362.61q.036.122.04.182zm.613-6.136-.274 1.023-3.036-.813.274-1.023z"></path><path fill="currentColor" d="M20.517 12a8.517 8.517 0 1 0-17.034 0 8.517 8.517 0 0 0 17.034 0m1 0A9.517 9.517 0 1 1 12 2.483 9.517 9.517 0 0 1 21.517 12"></path></svg>