<svg width="16" height="16" viewBox="0 0 16 16" fill="none" xmlns="http://www.w3.org/2000/svg">
<path d="M6.39739 2.43489C7.10946 1.20156 8.89041 1.20155 9.60247 2.43489L15.0927 11.9456C15.8048 13.1789 14.9152 14.72 13.4911 14.72H2.50872C1.0847 14.72 0.194405 13.1789 0.906184 11.9456L6.39739 2.43489ZM8.30267 3.18489C8.16795 2.95156 7.83192 2.95155 7.6972 3.18489L2.20599 12.6956C2.07127 12.929 2.23929 13.22 2.50872 13.22H13.4911C13.7605 13.22 13.9286 12.9289 13.7939 12.6956L8.30267 3.18489Z" fill="#E05959"></path>
<path d="M8.49885 10.4644H7.50115L7.11523 5.46167H8.87594L8.49885 10.4644Z" fill="#E05959"></path>
<path d="M7.37907 11.2736C7.31418 11.3818 7.28174 11.4992 7.28174 11.6259C7.28174 11.7557 7.31418 11.8762 7.37907 11.9874C7.44396 12.0987 7.53203 12.1867 7.64327 12.2516C7.75451 12.3165 7.87501 12.349 8.00479 12.349C8.13148 12.349 8.2489 12.3165 8.35705 12.2516C8.46829 12.1867 8.55636 12.0987 8.62125 11.9874C8.68614 11.8762 8.71858 11.7557 8.71858 11.6259C8.71858 11.4992 8.68614 11.3818 8.62125 11.2736C8.55636 11.1624 8.46829 11.0743 8.35705 11.0094C8.2489 10.9446 8.13148 10.9121 8.00479 10.9121C7.87501 10.9121 7.75451 10.9446 7.64327 11.0094C7.53203 11.0743 7.44396 11.1624 7.37907 11.2736Z" fill="#E05959"></path>
</svg>