<svg xmlns="http://www.w3.org/2000/svg" width="24" height="24" fill="none" viewBox="0 0 24 24"><path fill="#24282D" d="M19.446 3.661a2.75 2.75 0 0 1 2.75 2.75v11.177a2.75 2.75 0 0 1-2.75 2.75H4.408a2.75 2.75 0 0 1-2.75-2.75V6.41a2.75 2.75 0 0 1 2.75-2.75zm-15.038 1.5c-.69 0-1.25.56-1.25 1.25v11.177c0 .69.56 1.25 1.25 1.25h11.139V5.16zm12.639 13.677h2.4c.69 0 1.25-.56 1.25-1.25V6.41c0-.69-.56-1.25-1.25-1.25h-2.4zm-4.853-6.744L8.19 16.099l-1.061-1.06 2.945-2.946-2.945-2.945 1.061-1.06z"></path></svg>