<svg xmlns="http://www.w3.org/2000/svg" width="16" height="16" fill="none" viewBox="0 0 16 16"><path fill="#24282D" d="M13.333 12.423a.5.5 0 0 1 0 1H2.667a.5.5 0 0 1 0-1zm0-2.461a.5.5 0 0 1 0 1H2.667a.5.5 0 0 1 0-1zM7.18 2.577a.91.91 0 0 1 .91.91V7.59a.91.91 0 0 1-.91.91H3.077a.91.91 0 0 1-.91-.91V3.487a.91.91 0 0 1 .91-.91zM13.333 7.5a.5.5 0 0 1 0 1H9.641a.5.5 0 0 1 0-1zm-10.166 0H7.09V3.577H3.167zm10.166-2.462a.5.5 0 0 1 0 1H9.641a.5.5 0 0 1 0-1zm0-2.46a.5.5 0 0 1 0 1H9.641a.5.5 0 0 1 0-1z"></path></svg>