<svg xmlns="http://www.w3.org/2000/svg" width="24" height="24" fill="none" viewBox="0 0 24 24"><path fill="#24282D" fill-rule="evenodd" d="m13.811 9.905 5.803-.648-.648-5.803-1.62.18.336 3.01a8.06 8.06 0 0 0-9.387-1.44 8.1 8.1 0 0 0-3.779 4.141 8.15 8.15 0 0 0-.2 5.611 8.12 8.12 0 0 0 3.472 4.402 8.06 8.06 0 0 0 10.367-1.665 8.14 8.14 0 0 0 1.932-5.269h-1.63c0 1.545-.548 3.04-1.545 4.214a6.43 6.43 0 0 1-8.272 1.33 6.5 6.5 0 0 1-2.775-3.518 6.52 6.52 0 0 1 .16-4.489 6.48 6.48 0 0 1 3.02-3.309 6.426 6.426 0 0 1 7.629 1.293l-3.044.34z" clip-rule="evenodd"></path></svg>