<svg xmlns="http://www.w3.org/2000/svg" width="16" height="16" fill="none" viewBox="0 0 16 16"><path fill="#24282D" d="M3.333 12.701v-1.365a6.028 6.028 0 0 0 10.615-1.06.667.667 0 0 0-1.235-.501 4.695 4.695 0 0 1-8.204.917h.837a.667.667 0 0 0 0-1.333h-2.68a.667.667 0 0 0-.666.666v2.676a.667.667 0 0 0 1.333 0M8.306 2a6.03 6.03 0 0 0-5.588 3.761.667.667 0 0 0 1.236.5 4.695 4.695 0 0 1 8.204-.916h-.838a.667.667 0 0 0 0 1.333H14a.667.667 0 0 0 .667-.666V3.336a.667.667 0 0 0-1.334 0V4.7A6.02 6.02 0 0 0 8.306 2"></path></svg>